<?xml version="1.0" encoding="utf-8"?>
<!-- Generator: Adobe Illustrator 16.0.3, SVG Export Plug-In . SVG Version: 6.00 Build 0)  -->
<!DOCTYPE svg PUBLIC "-//W3C//DTD SVG 1.1//EN" "http://www.w3.org/Graphics/SVG/1.1/DTD/svg11.dtd">
<svg version="1.1" id="Layer_1" xmlns="http://www.w3.org/2000/svg" xmlns:xlink="http://www.w3.org/1999/xlink" x="0px" y="0px"
	 width="402px" height="402px" viewBox="0 0 402 402" enable-background="new 0 0 402 402" xml:space="preserve">
<g>
	<path fill="#9E1D21" d="M331.285,276.952c-0.664-9.464-1.023-18.979-0.53-28.471c0.859-15.28-2.815-30.376-1.986-45.663
		c0.614-10.579-1.442-21.116-5.151-31.005c-1.434,5.271,0.672,12.185-4.909,15.64c-4.428-6.914-0.113-12.405,2.304-18.157
		c-3.366-5.321-3.346-12.09-7.129-17.203c-6.586-9.35-14.08-18.441-17.424-29.588c-3.688-9.431-3.953-19.929-8.847-28.9
		c-3.176-8.313-10.369-13.823-15.84-20.504c-6.17-7.193-10.513-15.885-17.539-22.334c-7.832-7.418-17.111-13.1-25.129-20.319
		c2.564-0.594,7.707-1.767,10.272-2.361c-6.278-3.839-13.856,0.134-20.348-3.056c-8.752-3.339-17.981-7.318-27.573-4.922
		c-18.769,4.868-38.134,7.314-56.855,12.261c-12.021,7.028-26.604,7.119-38.715,13.674C86.771,54.236,77.23,62.593,71.14,73.44
		c-4.049,5.182-9.46,9.062-14.387,13.395c-11.513-1.488-23.129-1.422-34.606,0.28c1.482,2.864,2.156,5.995,2.576,9.165
		c7.753-0.669,15.481-0.973,23.249-0.904c-5.401,9.281-11.482,18.112-18.162,26.514c-14.677,19.43-20.873,43.413-26.254,66.727
		c-0.919-0.375-2.736-1.183-3.66-1.559v40.112c5.457,11.144,2.202,23.794,4.024,35.645c0,0.011,0,0.015,0,0.029
		c0.814,10.2,2.69,20.305,5.077,30.248c0.245,4.335,4.948,5.985,7.294,8.996c-1.558-0.119-4.663-0.333-6.195-0.43
		c6.504,11.11,12.095,22.7,17.792,34.238c7.349,7.095,12.781,15.965,20.523,22.625c12.101,7.713,23.583,16.797,37.642,20.713
		c6.34-0.519,12.425,1.343,18.167,3.834l-2.002,2.551h6.509c-0.449-0.778-1.373-2.362-1.847-3.14
		c-12.83-5.993-26.274-10.915-38.645-17.929c-9.095-5.937-13.479-16.52-21.387-23.713c-6.27-6.224-15.082-11.571-15.875-21.28
		c-2.89-17.138-11.217-32.804-13.519-49.998c-1.278,0.339-3.839,0.955-5.117,1.286c-0.135-0.518-0.37-1.596-0.49-2.131
		c1.623,0.14,4.947,0.422,6.57,0.565c-1.488-8.92-8.278-16.449-7.239-25.794c0.614-14.933,1.707-29.854,1.073-44.816
		c-1.148-13.394,6.865-24.946,9.835-37.532c1.828-9.614-1.128-20.792,5.616-28.979c9.136-11.857,21.372-21.117,29-34.252
		c9.73,1.468,19.759,3.2,28.017,8.926c10.164,5.965,17.188,15.621,24.437,24.637c-10.658-3.405-22.186-5.846-33.283-3.45
		c-16.974,8.277-27.937,25.325-34.936,42.224c1.238,8.756,3.62,17.477,6.46,25.844c6.369,11.391,11.267,26.542,25.066,30.731
		c7.668-0.282,15.311-0.589,22.984-0.572c-0.01,0-0.015,0.005-0.015,0.005c-7.659-0.021-15.296,0.29-22.965,0.567
		c4.069,3.785,8.477,7.17,12.995,10.396c1.138-0.594,3.41-1.777,4.542-2.371l-4.657,0.384c0,0,0-0.01,0.005-0.01L90,234.845
		c2.701-0.854,8.147-2.557,10.839-3.416c-5.158,6.142-12.331,9.735-18.596,14.523c10.623-3.846,19.589-10.984,27.192-19.176
		c2.956-3.346,5.756-6.805,8.617-10.205l0,0c-2.861,3.41-5.651,6.864-8.612,10.205c2.646,7.719-3.595,14.207-4.522,21.515
		c2.676,6.197,4.148,13.137,0.693,19.357c-1.144-3.809-2.201-7.619-3.325-11.424c-0.54,10.549-2.356,20.969-3.924,31.408l0,0
		c0.045,2.22,0.14,6.644,0.189,8.849c-6.074,14.398-11.047,29.759-9.679,45.584c5.012,6.138,13.029,8.672,20.243,11.28
		c16.919,3.334,34.147,5.859,51.455,5.904c1.134-1.878,2.272-3.781,3.41-5.67c30.991-8.998,54.375-32.11,81.309-48.528
		c-6.105,9.423-17.278,13.826-23.457,23.229c-4.09,6.268-11.818,8.251-16.926,13.487c7.788-1.582,14.631-5.727,20.504-10.939
		c4.023-0.843,6.89-2.834,5.89-7.428c7.718-5.666,14.038-12.995,21.801-18.535c13.287-0.989,27.822,0.384,38.941-8.627
		c0.497,1.554,1.011,3.113,1.486,4.697c-0.658,2.063-2.01,6.176-2.674,8.238c4.306-4.328,4.662-10.086,2.628-15.696l3.575,3.692
		c-0.538-2.763-0.074-5.56,1-8.166c3.684-10.862,4.043-22.484,4.396-33.847c-2.091-9.849-7.294-18.651-11.533-27.692
		c3.226,1.204,6.735,1.937,9.616,3.93c4.352,5.517,5.253,14.488,13,16.514c-0.379,9.709,1.159,19.719-1.801,29.118l0.703,4.903
		c6.086-10.302,1.377-22.513,2.276-33.657c4.383,7.05,5.076,15.478,6.94,23.355c0.164-0.83,0.492-2.534,0.658-3.357
		c-1.704-6.504-3.574-12.995-5.048-19.554c1.537,0.659,4.673,1.986,6.209,2.647c-0.579-2.434-1.73-7.29-2.3-9.73
		c-1.278,1.927-1.438,7.173-4.829,5.591c0.477-2.036,1.449-6.138,1.917-8.167c-5.935-13.116-17.92-21.896-29.923-29.09
		c8.807,12.12,27.277,19.264,25.589,36.901c-7.661-6.221-10.008-16.544-17.489-22.943c-9.278-9.658-21.854-15.286-31.053-24.945l0,0
		c4.964-0.679,9.934-1.368,14.902-2.031c0.901-0.844,2.706-2.582,3.604-3.431c2.156-0.169,6.438-0.524,8.598-0.688
		c-1.949-2.292-3.91-4.588-5.896-6.835c-1.662,0.155-5.023,0.494-6.705,0.679c-2.166-0.065-6.584-0.185-8.747-0.259
		c6.781-5.138,14.13-10.434,17.702-18.461c1.505-6.87,0.687-13.968,0.734-20.928c-3.95-4.847-6.134-10.673-8.121-16.495
		c-8.76-17.252-21.471-32.174-35.48-45.404c-8.723-7.553-21.331-7.054-31.72-3.813c-1.088,10.658-11.817,14.892-17.543,22.66
		c-10.509,14.103-17.583,32.524-12.521,50.111c-0.311,0.97-0.964,2.906-1.298,3.905c-2.367-1.537-4.732-3.045-7.113-4.568
		c0.769,7.673,4.392,14.442,11.986,17.163c0.176-2.156,0.47-6.46,0.644-8.621c5.792,11.133,16.88,16.5,26.674,23.292
		c-10.465-3.069-20.025-8.546-30.592-11.287c-8.821-2.196-18.481,5.727-26.429,0.051c-9.306,7.094-19.785,14.287-24.098,25.699
		c-7.433,19.533-17.517,39.039-16.669,60.53c1.374,18.46-5.566,36.169-12.166,53.044c-5.082,9.514-7.922,20.593-15.625,28.475
		c-0.514-16.67,8.028-31.411,11.676-47.221c1.633,2.132,3.29,4.282,4.949,6.415c2.715-14.278,3.449-28.831,6.649-43.009
		c0.254-12.033,3.55-23.458,7.474-34.732c0,0-0.005,0-0.005-0.005c2.062-8.097,3.16-16.451,5.801-24.396
		c3.155-6.629,9-11.812,10.888-19.085c2.721-10.179,6.395-20.099,11.747-29.209c2.506,1.467,5.038,2.935,7.549,4.428
		c1.158-1.257,2.346-2.505,3.529-3.763c-6.439-6.939-12.396-14.248-17.827-22.012c1.567,7.289,3.415,14.558,3.694,22.036
		c-2.606-3.056-5.112-6.181-7.553-9.376c0.209,2.582,0.684,7.738,0.923,10.319c-8.352-5.137-14.672-12.685-21.561-19.524
		c-0.07-3.53-0.14-7.079-0.239-10.604c-0.045-1.143-0.16-3.415-0.21-4.543c-3.08-5.471-4.618-13.399-11.672-14.981
		C91.658,98.472,78.613,92.845,65.719,86.9c7.004-9.511,16.524-16.829,22.909-26.813c2.63-4.074,7.029-6.321,11.058-8.737
		c6.744,0.69,11.976-4.118,18.176-5.75c8.572-2.417,17.563-2.012,26.345-1.942c13.494-0.215,26.109,5.706,39.598,5.511
		c-1.394,3.125-2.48,6.459-4.448,9.29c-3.19-0.125-6.379-0.359-9.585-0.743c1.049,16.739-4.992,33.947-16.404,46.228
		c0.734,3.72,4.593,8.022,2.536,11.652c-2.791,1.867-5.617,3.714-8.427,5.556c0.854,0.904,1.732,1.753,2.625,2.557
		c0.874-0.66,2.626-2.007,3.505-2.696c0.659-0.28,1.937-0.849,2.606-1.159c0.354,0.095,0.689,0.209,1.003,0.35
		c-0.314-0.14-0.644-0.255-0.999-0.35c-0.668,0.31-1.936,0.879-2.611,1.159c-0.514,2.491-0.989,4.952-1.388,7.458
		c1.912,2.506,3.804,5.062,5.671,7.618c-0.005,0-0.005,0-0.005,0c-1.867-2.556-3.754-5.112-5.671-7.618
		c-2.066,8.492,5.133,15.616,11.932,19.289c6.011,2.228,10.864-2.86,14.223-7.123c-6.365,2.341-14.033,6.125-18.486-1.492
		c5.102-1.278,10.274-2.507,15.401-3.74c0.03-9.659-0.115-19.883,4.908-28.544c4.184-9.306,13.888-15.746,15.131-26.375
		c1.154-10.603,6.385-19.924,10.878-29.374c6.414,0.779,12.855,1.632,19.344,1.902c-3.135-3.939-8.147-4.877-12.734-6.021
		c4.638-4.099,9.25-8.158,13.884-12.266c12.38,7.503,23.767,16.644,33.322,27.557c-0.725,0.993-2.188,2.96-2.926,3.958
		c7.503,5.965,10.897,14.887,13.095,23.902c0.83-0.943,2.481-2.88,3.314-3.859c6.296,9.685,15.103,18.252,16.546,30.323
		c-7.27-6.25-8.139-17.587-17.044-22.065c3.24,18.531,20.763,29.778,25.759,47.656c0.481,2.222,1.444,6.65,1.902,8.871
		c1.338-1.847,2.68-3.689,4.029-5.537c0.903,1.164,2.684,3.535,3.577,4.713l-3.717-1.114c-0.729,1.683-1.438,3.334-2.163,5.022
		c4.136,10.214,5.907,21.247,10.74,31.217c6.544,14.298,7.042,30.201,11.38,45.145c3.736,20.067-0.642,40.656,2.692,60.81
		c1.144,7.736,0.949,15.595,0.594,23.407c-2.93,3.416-5.655,7.006-6.994,11.353c-7.608,19.516-14.757,39.254-19.965,59.544h2.796
		c8.328-15.272,13.494-31.938,20.454-47.828c7.009-12.889,13.324-27.117,12.586-42.104
		C336.61,288.997,331.806,283.553,331.285,276.952z M22.811,312.702c-7.578-2.271-4.263-11.317-5.287-17.168
		C19.371,301.241,21.123,306.94,22.811,312.702z M13.101,264.06c-3.075,1.966-6.839-3.216-3.928-5.517
		C12.322,256.599,15.801,261.737,13.101,264.06z M260.25,293.757c-5.371,1.073-11.168,1.613-15.555,5.263
		c-12.851,10.149-27.646,17.536-39.859,28.521c-2.75,2.959-4.592-0.999-6.083-2.917c4.096-5.271,3.717-12.236,4.667-18.482
		c1.443,0.444,4.277,1.37,5.702,1.843l0,0l0,0l0,0c0,0,0,0,0-0.011c0.473-2.763,0.973-5.53,1.441-8.297
		c2.431,2.197,4.898,4.403,7.358,6.605c0.755-4.067,1.519-8.117,2.267-12.176c-1.674,0.019-3.503-0.386-5.231-0.438
		c1.729,0.053,3.558,0.457,5.235,0.438l0.621-3.26c5.4,1.803,5.61,9.824,12.286,9.615c2.954-6.611,6.6-12.857,10.842-18.7
		c0.635,4.117,1.683,8.191,3.546,11.948c0.454-5.863,0.295-11.76,0.09-17.636c1.446-0.564,4.322-1.692,5.735-2.267
		c0.074,1.089,0.234,3.266,0.333,4.359C263.25,276.759,259.296,287.91,260.25,293.757z M243.816,197.987
		c3.226-0.304,6.391-0.185,9.59,0.404C253.237,205.041,243.631,204.508,243.816,197.987z M271.062,277.289
		c2.369-1.021,4.784-1.927,7.195-2.82c0.785-0.875,2.371-2.646,3.169-3.521l1.679,0.8c0,0,0.004,0.005,0.004,0.009
		c2.318,1.726,4.474,3.665,6.657,5.576c1.702-5.183,6.395-2.366,5.629,1.537c0.71,4.954-1.562,10.583-6.363,12.577
		c-7.998,3.383-16.875,3.034-25.387,2.904c0.265-3.432,0.556-6.854,0.883-10.295C266.781,281.859,268.842,279.491,271.062,277.289z
		 M272.796,190.229c-1.663,1.627-3.275,3.31-4.787,5.061l0,0c-2.019,0.025-5.987,0.095-7.978,0.121
		c-0.398-1.159-1.213-3.479-1.609-4.638c-5.156,0-10.293,0-15.409,0c-1.037,0.898-3.094,2.715-4.14,3.638l-2.461-0.204
		c-6.535-2.632-13-5.427-19.08-8.952c15.485,2.178,31.033,3.714,46.703,2.222l-0.799,3.455
		C265.621,190.773,270.399,190.394,272.796,190.229z M251.465,96.71c3.529,6.645,7.718,12.99,14.067,17.293
		c-3.624,10.704-19.204,10.888-24.906,2.132C238.16,107.708,242.778,98.816,251.465,96.71z M192.831,151.435
		c-7.874-11.747-1.225-26.659,4.498-37.876c7.413-8.761,16.185-16.689,25.901-22.889c6.908-3.369,15.451-3.195,22.504-0.24
		c1.403,4.075-3.406,5.207-5.607,7.529c-8.071,6.535-10.034,20.857-1.517,27.836c7.414,3.604,16.055,3.056,24.022,2.372
		c2.306-2.156,2.756-6.68,6.015-7.488c8.457,6.729,9.441,17.807,13.924,26.918c4.096,18.037-13.21,37.356-31.675,34.82
		c-10.34-1.631-21.518,0.923-31.177-4.098C207.678,173.066,199.935,161.958,192.831,151.435z M208.196,189.56
		c-0.968,3.01-1.937,5.992-3.03,8.972c-4.188-1.259-6.506-4.918-8.456-8.538c-2.907,1.04-5.796,2.108-8.677,3.171
		c-0.154-2.582-0.43-7.694-0.565-10.274C194.849,183.359,201.776,185.966,208.196,189.56z M188.913,265.166
		c6.474,2.655,13.019,4.984,20.208,3.409c3.404-10.032,11.552-18.061,22.533-18.695c6.581,5.802,13.92,11.225,17.52,19.504
		c-2.921,1.234-5.801,2.458-8.693,3.692c-2.301,6.224-5.041,12.234-8.19,18.068c-6.132-5.71-15.456-7.657-22.906-3.272
		c-9.569,5.561-11.89,17.441-14.687,27.248c-1.821-2.271-3.568-4.623-5.275-6.936c-8.847,0.159-18.891,0.19-25.585,6.885
		c-6.056,5.989-14.873,10.935-14.128,20.662c-2.601-2.6-5.167-5.25-7.628-7.998c5.706-5.796,13.169-9.476,18.746-15.391
		c6.439-9.465,11.551-19.909,15.106-30.815C178.273,274.967,182.278,268.027,188.913,265.166z M157.321,230.681
		c-0.539-4.334,1.782-9.662-2.002-12.995c-2.202,1.487-3.674,4.169-6.444,4.664c-4.798-4.17-10.2-9.88-8.447-16.834
		c0.833-6.885,8.142-9.87,13.354-13.045c3.949,3.429,5.931,8.197,7.423,13.09c2.561,2.98,5.356,5.829,5.376,10.082
		c-1.822,1.258-3.669,2.512-5.491,3.791C161.534,223.885,163.336,229.189,157.321,230.681z M181.233,182.486
		c2.985,8.896,2.632,18.341,2.272,27.598c-1.283,0-3.833-0.051-5.117-0.051c0.099-1.323,0.295-3.974,0.405-5.277l3.08-0.064
		c-0.28-1.188-0.869-3.555-1.189-4.738c-2.071,1.139-4.159,2.302-6.215,3.436c-0.928-0.381-2.726-1.158-3.629-1.563l0.855,4.449
		c-8.358-1.987-9.137-11.478-14.618-16.784C163.855,183.57,172.267,180.849,181.233,182.486z M156.123,178.722
		c1.319,0.644,3.969,1.872,5.322,2.49c-9.375,4.214-17.188,10.814-24.573,17.817C139.744,189.61,148.185,183.689,156.123,178.722z
		 M130.173,221.541c4.288,3.433,10.229,5.306,13.069,10.232c-0.923,4.803-6.914,6.34-10.254,9.326
		c-0.045-3.261-0.11-6.54-0.185-9.801c-1.248-0.08-3.739-0.17-4.973-0.234C128.616,227.885,129.424,224.716,130.173,221.541z
		 M127.622,342.332c2.891-3.075,7.125-4.979,9.351,0.193l2.441-4.166c3.895,3.334,7.693,6.922,12.141,9.561
		c3.105-2.577,4.423-6.605,6.335-10.037c1.688-2.365,3.34-4.732,5.067-7.055c0.79-2.674,1.403-5.37,1.873-8.12
		c2.062-2.077,3.504-5.469,6.889-5.297c0.993,3.006,1.801,6.059,2.411,9.186c1.966-2.896,3.889-5.752,5.806-8.667
		c1.658,0.048,4.918,0.158,6.579,0.22c4.109,4.702,8.638,9.036,12.308,14.123c-14.868,9.541-31.716,14.936-47.812,21.841
		c-11.482-4.818-24.082-4.493-36.034-7.185C118.032,342.852,122.561,340.8,127.622,342.332z M104.778,285.665
		c-1.418-4.877-1.633-10.845,0.185-15.6C108.402,272.604,107.474,282.679,104.778,285.665z M49.719,175.388
		c-0.135-4.788,2.701-8.768,4.808-12.811c4.493-0.284,8.951,0.24,12.969,2.417c0.739,6.706-4.233,13.065-11.057,13.47
		C53.817,178.342,49.584,179.506,49.719,175.388z M98.747,227.297c4.259-7.934,11.228-14.347,18.696-19.24
		C114.583,217.046,108.042,224.716,98.747,227.297z M123.259,156.188c1.448-2.397,2.901-4.753,4.309-7.149
		c0.758,1.323,2.251,3.934,3.01,5.227c-2.481,0.93-4.833,2.188-6.979,3.695c9.391,3.764,4.758,13.159,1.767,19.744
		c-6.999,14.013-14.691,28.978-28.754,37.117c-8.452,5.917-20.808,9.32-29.685,2.392c-9.704-6.885-11.002-19.694-12.001-30.582
		c7.838-4.119,18.815-6.914,21.786-16.245c1.413-11.193-10.683-14.273-18.97-16.469c-0.969-4.309,4.952-7.479,7.722-10.37
		c9.47-6.2,20.663-15.196,32.495-9.59C107.883,139.113,122.385,142.743,123.259,156.188z M172.977,88.423
		c-2.272-2.322-0.29-6.865,2.806-7.174C180.499,82.072,176.945,90.714,172.977,88.423z M173.162,77.959
		c0.998-5.182,1.039-11.457,5.755-14.867C178.702,68.504,178.368,74.833,173.162,77.959z M191.273,26.264
		c-1.07,3.405-7.219,1.957-9.989,1.229C182.486,24.527,188.572,25.002,191.273,26.264z M191.198,59.138
		c-1.658,2.795-5.207,3.195-7.997,4.243c2.386-5.072,1.756-13.594,7.502-15.77C191.527,51.396,191.563,55.305,191.198,59.138z
		 M201.543,45.6c-4.16-0.639-8.353-2.322-12.587-1.228c-1.782-0.999-3.559-2.017-5.331-3.035l0.708,3.419
		c-7.543,0-15.121-0.56-22.294-3.061c-9.855-3.149-20.238-1.328-30.328-2.327c9.9-5.791,21.561-5.86,32.455-8.492
		c8.263-1.892,16.783-2.275,25.234-1.732c-0.333,4.458-2.246,8.407-4.502,12.151c1.448-0.234,4.364-0.714,5.806-0.953
		c2.172,1.308,4.357,2.581,6.559,3.838c-4.123-5.635-1.542-13.099-2.395-19.555c7.647-0.02,15.24,0.899,22.608,2.931
		C211.604,33.099,204.928,38.001,201.543,45.6z"/>
	<path fill="#9E1D21" d="M312.648,46.948c1.874-0.24,5.638-0.714,7.508-0.944c-1.893-3.739-6.508-4.263-9.822-6.206
		c3.549-2.131,7.598-2.721,11.626-3.27c-1.972-5.936-10.061-2.172-14.678-2.052c0.093,7.243-0.402,14.537,0.398,21.751
		C313.692,58.31,311.372,50.332,312.648,46.948z"/>
	<path fill="#9E1D21" d="M331.493,56.931c0.141-3.089,0.29-6.22,0.435-9.32c3.245-0.904,6.62-1.633,9.442-3.595
		c-4.1-1.398-10.774-0.294-10.466-6.484c4-0.3,8.002-0.549,12.004-0.949c-2.656-5.686-10.629-2.082-15.506-3.005
		c0.094,7.333-0.31,14.673,0.042,21.985C328.444,55.918,330.482,56.612,331.493,56.931z"/>
	<path fill="#9E1D21" d="M352.063,47.022c2.776-0.689,6.539,0.09,8.097-2.96c-3.315-1.253-6.649-2.557-9.935-3.89
		c3.52-2.525,7.703-3.354,11.921-3.929c-2.394-5.556-10.322-1.677-15.051-2.221c-0.175,7.763-0.278,15.531,0.354,23.269
		C353.086,56.677,351.258,50.831,352.063,47.022z"/>
	<path fill="#9E1D21" d="M369.765,57.766c0.859-3.57,1.688-7.174,2.496-10.749c2.811-0.52,5.627-1.063,8.446-1.663
		c-2.486-3.804-9.071-0.823-10.418-5.511c3.004-3.809,8.357-2.541,12.574-3.429c-3.364-5.092-10.584-1.992-15.655-2.811
		C367.783,41.48,363.425,51.635,369.765,57.766z"/>
	<path fill="#9E1D21" d="M391.675,47.092c1.697-1.473,8.758,0.798,7.232-3.195c-2.997-1.328-6.054-2.586-9.103-3.789
		c2.646-3.904,11.16-0.924,11.501-6.181c-4.764-0.729-9.56-0.309-14.353-0.021c-0.186,7.524-0.229,15.078-0.084,22.601
		C392.878,57.366,390.956,50.901,391.675,47.092z"/>
	<path fill="#9E1D21" d="M313.004,85.842c2.021-0.404,6.045-1.238,8.052-1.633c-1.993-4.218-10.225-0.898-9.256-6.749
		c3.271-2.442,7.58-2.271,11.344-3.345c-4.26-3.095-9.896-1.373-14.799-1.908c-1.465,7.928-2.345,16.43,0.43,24.167
		C313.298,95.162,311.736,89.271,313.004,85.842z"/>
	<path fill="#9E1D21" d="M343.025,72.682c-5.096-0.29-10.158-0.334-15.24-0.385c-0.598,7.863-0.551,15.766-0.364,23.673
		c1.015-0.259,3.056-0.809,4.067-1.093c0.317-3.359,0.62-6.699,1.006-10.054c2.176-0.244,6.524-0.714,8.704-0.949
		c-4.172-2.716-11.621-1.278-9.254-8.631C335.573,74.52,340.631,76.491,343.025,72.682z"/>
	<path fill="#9E1D21" d="M391.975,85.792c2.931-0.524,6.885-0.215,7.974-3.79c-2.051-0.214-6.171-0.614-8.236-0.809
		c-4-8.587,9.42-2.786,10.393-8.941c-5.113-0.02-10.181,0.044-15.262,0.095c-0.118,8.167-0.548,16.41,0.939,24.478
		C391.689,94.383,391.122,89.626,391.975,85.792z"/>
	<path fill="#9E1D21" d="M350.875,96.421c0.438-3.555,0.818-7.104,1.218-10.649c2.058-0.379,6.182-1.133,8.229-1.517
		c-1.459-3.41-5.554-2.387-8.373-3.41c-3.529-6.465,7.168-4.567,10.153-5.655c-2.322-5.702-10.199-1.917-14.936-2.936
		C348.532,79.921,343.33,91.498,350.875,96.421z"/>
	<path fill="#9E1D21" d="M382.385,72.392c-5.252-0.139-10.534-0.125-15.785,0c0,7.458-0.569,14.987,0.59,22.396
		c5.202,4.184,3.781-6.459,4.881-9.305c1.863-0.12,5.576-0.379,7.429-0.494l-0.076-3.18c-1.865-0.11-5.6-0.305-7.476-0.399
		c-0.121-1.323-0.356-3.974-0.466-5.276C375.098,75.069,381.321,77.65,382.385,72.392z"/>
	<path fill="#9E1D21" d="M134.341,105.815c-0.379,6.091-0.708,12.166-1.067,18.232c-5.511-1.943-10.979-4.049-16.28-6.555
		c0.044,1.133,0.159,3.4,0.209,4.538c3.505,2.676,6.799,5.706,10.773,7.668c4.758,1.587,9.59-0.918,14.208-1.917
		c-1.453-3.12-2.926-6.245-4.414-9.365c1.997,0.185,5.996,0.563,7.978,0.734C142.205,114.502,138.58,109.884,134.341,105.815z"/>
	<path fill="#9E1D21" d="M331.488,110.478c-4.843,0.03-9.7,0.095-14.547,0.17c0.097,7.788-1.366,15.93,0.879,23.483
		c5.388,1.388,3.336-6.01,4.702-9.095c2.875-0.829,6.062-1.373,8.049-3.929c-3.599-1.183-8.093-1.253-10.009-5.187
		c3.548-0.969,7.194-1.633,10.868-2.152L331.488,110.478z"/>
	<path fill="#9E1D21" d="M340.226,114.881c4.212-0.733,9.326,0.404,12.565-3.146c-4.978-0.568-11.262-2.815-15.655,0.045
		c-0.814,7.339-0.285,14.747-0.126,22.135c1.019-0.214,3.032-0.618,4.051-0.809c0.107-2.955,0.239-5.89,0.374-8.831
		c2.251-0.259,6.729-0.753,8.977-1.014C347.564,119.544,340.726,120.423,340.226,114.881z"/>
	<path fill="#9E1D21" d="M361.354,124.582c2.83-0.509,5.657-1.058,8.467-1.628c-2.454-3.1-6.604-3.619-9.961-5.207
		c2.576-3.625,7.151-3.365,11.056-3.979l-0.146-3.15c-4.669,0-9.324,0.03-13.989,0.056c-0.36,7.523-0.384,15.076-0.31,22.625
		c1.038,0.115,3.127,0.375,4.159,0.514C360.873,130.747,361.108,127.662,361.354,124.582z"/>
	<path fill="#9E1D21" d="M376.495,110.973c-0.43,7.129-1.04,14.297-0.135,21.427c0.843,0.549,2.549,1.657,3.399,2.226
		c0.663-3.529,1.277-7.034,1.921-10.553c2.027-0.215,6.132-0.689,8.193-0.904c-3.031-2.89-7.674-3.454-9.999-7.173
		c3.694-1.068,7.462-1.937,11.202-2.841C387.622,108.466,381.321,111.212,376.495,110.973z"/>
	<path fill="#9E1D21" d="M360.115,149.438c-5.048-0.09-10.091,0-15.122,0.29c0.024,7.973-0.149,15.98,0.948,23.907
		c4.843-1.612,3.45-7.078,4.303-10.937c1.894-0.19,5.679-0.57,7.6-0.759c-1.089-3.455-5.258-3.214-7.957-4.607
		C347.619,149.942,359.477,155.877,360.115,149.438z"/>
	<path fill="#9E1D21" d="M368.922,173.02c0.403-3.553,0.717-7.127,1.082-10.678c2.206-0.14,6.605-0.479,8.787-0.615
		c-1.873-4.143-8.662-1.212-9.614-5.97c1.467-5.302,8.92-1.463,11.98-5.537c-5.297-0.874-10.653-0.874-15.996-0.589
		c0.018,7.313-0.384,14.678,0.261,21.971C366.301,171.952,368.043,172.667,368.922,173.02z"/>
	<path fill="#9E1D21" d="M388.142,173.984c0.634-3.809,1.137-7.658,1.688-11.497c2.032-0.145,6.1-0.379,8.161-0.529
		c-1.944-4.043-7.174-3.83-10.729-5.647c3.461-4.078,10.341-1.902,13.108-6.614c-5.198-0.299-10.407-0.23-15.595-0.065
		C386.131,157.44,381.266,168.313,388.142,173.984z"/>
	<path fill="#9E1D21" d="M222.778,167.265c-0.239,2.061-0.719,6.136-0.946,8.167c2.049-0.259,6.203-0.753,8.26-1.012
		C229.289,170.65,225.879,168.896,222.778,167.265z"/>
	<path fill="#9E1D21" d="M359.376,210.228c5.022-2.747,3.06-9.415,3.648-14.077c-0.398-2.772,1.07-11.059-3.923-7.739
		c-0.903,5.937-0.692,11.997-0.804,18.008c-2.59,0.52-5.167,1.02-7.747,1.511c-1.116-6.533-0.733-13.208-1.589-19.738
		c-0.612-0.209-1.867-0.638-2.506-0.853c-1.981,5.916-2.042,12.38-0.804,18.437C346.415,211.744,355.049,212.929,359.376,210.228z"
		/>
	<path fill="#9E1D21" d="M373.654,205.634c-0.715-6.011-0.59-12.064-1.037-18.11c-1.001,0.29-2.968,0.829-3.937,1.119
		c0,5.655-0.423,11.385,0.449,17.011c1.462,7.156,12.995,8.078,16.332,1.968c2.142-6.809,1.048-14.082-0.377-20.902
		c-5.821,3.274-1.633,11.388-3.224,16.764C382.976,208.057,374.813,209.565,373.654,205.634z"/>
	<path fill="#9E1D21" d="M76.826,217.281c2.956-2.271,4.543-5.729,6.08-9.044C77.365,207.458,75.928,212.979,76.826,217.281z"/>
	<path fill="#9E1D21" d="M356.287,247.175c3.872,5.281,14.197,3.789,15.638-2.932c0.714-5.686,0.354-11.427,0.515-17.133
		c-1.081,0.154-3.263,0.494-4.353,0.658c-0.454,5.987-0.309,11.973-0.469,17.989c-2.052-0.047-6.174-0.116-8.242-0.146
		c-0.373-6.338-0.42-12.659-0.396-19.006c-3.034,0.33-5.489,1.425-4.502,4.948C354.503,236.757,353.839,242.354,356.287,247.175z"/>
	<path fill="#9E1D21" d="M391.712,249.478c7.322-5.538,3.524-15.912,3.647-23.626c-7.687,2.981-2.341,13.471-4.328,19.815
		c-2.058,0-6.136-0.025-8.192-0.056c-0.434-6.744,0.997-13.888-1.775-20.302c-5.376,4.398-2.632,12.215-2.518,18.195
		C378.861,249.926,386.795,251.412,391.712,249.478z"/>
	<path fill="#9E1D21" d="M362.313,283.957c1.156-6.033,0.449-12.26,0.548-18.372c-0.991-0.021-2.99-0.039-3.978-0.063
		c-0.211,6.357-0.481,12.729-0.955,19.078c-1.981,0.045-5.979,0.092-7.971,0.145c-0.472-6.604-0.565-13.213-0.472-19.795
		c-0.873,0.166-2.575,0.525-3.428,0.716c-1.334,6.465-2.057,13.604,0.628,19.799C350.436,290.063,359.732,289.634,362.313,283.957z"
		/>
	<path fill="#9E1D21" d="M385.635,283.796c1.674-5.915,1.272-12.28-0.199-18.185c-0.828-0.15-2.502-0.445-3.354-0.589
		c0.169,6.679,0.019,13.351-0.584,19.982c-1.79-0.214-5.353-0.644-7.156-0.859c-1.871-6.155-1.163-12.71-1.637-19.044
		c-5.325-0.549-3.783,5.796-4.188,9.119c0.43,4.086-0.898,9.263,2.796,12.203C375.286,289.972,383.827,289.405,385.635,283.796z"/>
	<path fill="#9E1D21" d="M183.345,287.087c0.634-3.759,3.169-8.191-0.294-11.295c-3.335,8.144-6.011,16.68-5.817,25.614
		C181.203,297.676,181.778,292.019,183.345,287.087z"/>
	<path fill="#9E1D21" d="M315.405,284.861c-2.042,1.683-2.422,7.572,0.941,7.554C318.311,290.713,318.708,284.912,315.405,284.861z"
		/>
	<path fill="#9E1D21" d="M280.604,307.535c1.791,2.303,4.004,2.558,6.605,0.785c0.168-1.164,0.514-3.455,0.709-4.592
		C285.292,301.554,280.225,304.08,280.604,307.535z"/>
	<path fill="#9E1D21" d="M311.8,302.429c-4.044,10.172-11.548,18.434-15.62,28.567c3.954-3.877,6.245-8.966,9.135-13.611
		C308.091,312.702,312.135,308.243,311.8,302.429z"/>
	<path fill="#9E1D21" d="M355.763,303.417c-1.378,6.939-2.771,14.732,0.633,21.302c4.212,4.643,13.804,3.421,15.529-2.956
		c0.692-5.631,0.312-11.332,0.252-16.992c-1.01-0.233-3.052-0.663-4.09-0.904c-0.264,6.227-0.403,12.431-0.354,18.655
		c-2.554,0.4-5.131,0.778-7.688,1.153c-1.238-6.168-1.263-12.465-0.968-18.721C358.252,304.571,356.581,303.802,355.763,303.417z"/>
	<path fill="#9E1D21" d="M396.168,312.456c-0.528-2.764,0.444-10.058-4.376-8.156c-0.557,5.836-0.103,11.756-0.74,17.6
		c-1.942,2.68-9.476,2.519-8.213-2.361c-0.359-5.468-0.434-10.985-0.978-16.43c-2.102,1.518-4.852,3.418-3.831,6.584
		c0.052,6.251-1.396,17.468,7.74,17.519C394.603,329.482,397.467,319.206,396.168,312.456z"/>
	<path fill="#9E1D21" d="M227.007,339.921c7.508-6.372,15.605-12.262,21.188-20.521c-3.83,1.416-7.568,3.383-11.758,3.338
		c1.374,0.689,4.119,2.056,5.497,2.739c-6.539,5.237-13.005,10.729-20.742,14.112c1.701,3.74-1.514,6.508-3.319,9.441
		c5.83-2.64,11.814-6.249,18.471-5.397c4.623,0.499,8.643,5.049,13.444,3.052C247.105,337.396,233.972,341.133,227.007,339.921z"/>
	<path fill="#9E1D21" d="M79.257,333.67c1.613,5.825,3.694,11.477,5.236,17.334c2.582,1.338,5.202,2.669,7.928,3.809
		c-1.732-3.697-4.877-6.37-7.174-9.666C83.331,341.289,82.263,336.915,79.257,333.67z"/>
	<path fill="#9E1D21" d="M358.901,342.243c-0.14,6.644-0.385,13.327-1.442,19.928c-2.671-0.55-5.346-1.12-7.997-1.677
		c-1.205-6.086,3.548-15.912-3.646-19.036c-0.637,7.119-2.15,14.843,0.968,21.637c3.819,4.447,11.998,3.929,15.222-1.021
		c1.663-6.479,0.687-13.253,0.687-19.862L358.901,342.243z"/>
	<path fill="#9E1D21" d="M380.728,361.382c-1.743,0.099-5.246,0.345-6.999,0.434c-0.594-6.351-0.284-12.835-1.566-19.081
		l-3.216-1.206c-0.125,8.447-3.534,25.571,9.864,24.687c11.438-1.982,7.345-17.016,6.891-25.042
		C378.502,345.461,384.473,355.262,380.728,361.382z"/>
</g>
</svg>
