<?xml version="1.0" encoding="utf-8"?>
<!-- Generator: Adobe Illustrator 16.0.3, SVG Export Plug-In . SVG Version: 6.00 Build 0)  -->
<!DOCTYPE svg PUBLIC "-//W3C//DTD SVG 1.1//EN" "http://www.w3.org/Graphics/SVG/1.1/DTD/svg11.dtd">
<svg version="1.1" id="Layer_1" xmlns="http://www.w3.org/2000/svg" xmlns:xlink="http://www.w3.org/1999/xlink" x="0px" y="0px"
	 width="402px" height="402px" viewBox="0 0 402 402" enable-background="new 0 0 402 402" xml:space="preserve">
<g>
	<path fill="#FFFFFF" d="M331.285,268.223c-0.664-9.464-1.023-18.979-0.531-28.471c0.859-15.28-2.814-30.376-1.986-45.663
		c0.615-10.578-1.441-21.115-5.15-31.005c-1.434,5.271,0.672,12.185-4.91,15.64c-4.428-6.914-0.113-12.404,2.305-18.157
		c-3.367-5.321-3.346-12.09-7.129-17.203c-6.586-9.35-14.08-18.44-17.424-29.588c-3.689-9.431-3.953-19.93-8.848-28.9
		c-3.176-8.313-10.369-13.822-15.84-20.504c-6.17-7.192-10.512-15.885-17.539-22.334c-7.832-7.418-17.111-13.1-25.129-20.319
		c2.564-0.594,7.707-1.767,10.273-2.361c-6.279-3.839-13.857,0.134-20.348-3.056c-8.752-3.339-17.981-7.318-27.573-4.922
		c-18.77,4.868-38.135,7.314-56.855,12.261c-12.021,7.028-26.604,7.119-38.715,13.674C86.771,45.507,77.23,53.863,71.14,64.711
		c-4.049,5.182-9.461,9.062-14.388,13.395c-11.513-1.488-23.13-1.422-34.606,0.28c1.482,2.864,2.156,5.995,2.576,9.165
		c7.753-0.669,15.48-0.973,23.248-0.904c-5.4,9.281-11.481,18.113-18.161,26.514c-14.677,19.43-20.872,43.414-26.254,66.728
		c-0.919-0.375-2.735-1.184-3.659-1.559v40.111c5.457,11.144,2.201,23.794,4.023,35.645c0,0.011,0,0.015,0,0.029
		c0.814,10.2,2.69,20.305,5.076,30.248c0.246,4.335,4.948,5.985,7.295,8.996c-1.559-0.119-4.664-0.333-6.195-0.43
		c6.504,11.11,12.096,22.7,17.791,34.238c7.35,7.095,12.781,15.965,20.523,22.625c12.102,7.713,23.584,16.797,37.643,20.713
		c6.34-0.519,12.425,1.343,18.166,3.834l-2.002,2.551h6.51c-0.449-0.778-1.373-2.362-1.848-3.14
		c-12.83-5.993-26.273-10.915-38.645-17.929c-9.095-5.937-13.479-16.52-21.387-23.713c-6.27-6.224-15.081-11.571-15.875-21.28
		c-2.891-17.138-11.217-32.804-13.52-49.998c-1.277,0.339-3.838,0.955-5.116,1.286c-0.135-0.518-0.37-1.596-0.489-2.131
		c1.623,0.14,4.946,0.422,6.57,0.565c-1.488-8.92-8.278-16.449-7.239-25.794c0.614-14.933,1.707-29.854,1.073-44.816
		c-1.148-13.394,6.864-24.945,9.834-37.531c1.828-9.614-1.127-20.792,5.617-28.979c9.135-11.856,21.371-21.116,29-34.252
		c9.729,1.469,19.759,3.201,28.016,8.927c10.164,5.966,17.188,15.62,24.438,24.637c-10.658-3.405-22.186-5.847-33.283-3.45
		c-16.974,8.277-27.937,25.325-34.936,42.225c1.238,8.757,3.619,17.478,6.46,25.845c6.369,11.391,11.267,26.542,25.065,30.73
		c7.668-0.282,15.311-0.589,22.984-0.572c-0.01,0-0.015,0.005-0.015,0.005c-7.659-0.021-15.296,0.29-22.965,0.567
		c4.069,3.785,8.478,7.17,12.995,10.396c1.138-0.594,3.41-1.777,4.543-2.371l-4.658,0.384c0,0,0-0.01,0.006-0.01L90,226.115
		c2.701-0.854,8.147-2.557,10.84-3.416c-5.158,6.142-12.332,9.735-18.597,14.523c10.623-3.846,19.589-10.984,27.192-19.176
		c2.955-3.346,5.756-6.805,8.617-10.205l0,0c-2.861,3.41-5.652,6.864-8.612,10.205c2.646,7.719-3.595,14.207-4.522,21.515
		c2.676,6.197,4.148,13.137,0.693,19.357c-1.144-3.809-2.201-7.619-3.324-11.424c-0.54,10.549-2.357,20.969-3.924,31.408l0,0
		c0.045,2.22,0.14,6.644,0.188,8.849c-6.074,14.398-11.048,29.759-9.679,45.584c5.012,6.138,13.029,8.672,20.242,11.28
		c16.92,3.334,34.147,5.859,51.455,5.904c1.134-1.878,2.272-3.781,3.41-5.67c30.991-8.998,54.375-32.11,81.309-48.528
		c-6.105,9.423-17.279,13.826-23.457,23.229c-4.09,6.268-11.818,8.251-16.926,13.487c7.787-1.582,14.631-5.727,20.504-10.939
		c4.023-0.843,6.889-2.834,5.889-7.428c7.719-5.666,14.039-12.995,21.801-18.535c13.287-0.989,27.822,0.384,38.941-8.627
		c0.498,1.554,1.012,3.113,1.486,4.697c-0.658,2.063-2.01,6.176-2.674,8.238c4.307-4.328,4.662-10.086,2.629-15.696l3.574,3.692
		c-0.537-2.763-0.074-5.56,1-8.166c3.684-10.862,4.043-22.484,4.396-33.847c-2.09-9.849-7.293-18.651-11.533-27.692
		c3.227,1.204,6.736,1.937,9.617,3.93c4.352,5.517,5.252,14.488,13,16.514c-0.379,9.709,1.158,19.719-1.801,29.118l0.703,4.903
		c6.086-10.302,1.377-22.513,2.275-33.657c4.383,7.05,5.076,15.478,6.941,23.355c0.164-0.83,0.492-2.534,0.658-3.357
		c-1.705-6.504-3.574-12.995-5.049-19.554c1.537,0.659,4.674,1.986,6.209,2.647c-0.578-2.434-1.73-7.29-2.299-9.73
		c-1.279,1.927-1.439,7.173-4.83,5.591c0.477-2.036,1.449-6.138,1.918-8.167c-5.936-13.116-17.92-21.896-29.924-29.09
		c8.807,12.12,27.277,19.264,25.59,36.901c-7.662-6.221-10.008-16.544-17.49-22.943c-9.277-9.658-21.854-15.286-31.053-24.945l0,0
		c4.965-0.68,9.934-1.367,14.902-2.031c0.902-0.844,2.707-2.582,3.604-3.431c2.156-0.169,6.439-0.524,8.598-0.688
		c-1.949-2.292-3.91-4.589-5.896-6.835c-1.662,0.154-5.023,0.494-6.705,0.678c-2.166-0.064-6.584-0.184-8.746-0.259
		c6.781-5.138,14.129-10.435,17.701-18.461c1.506-6.869,0.688-13.969,0.734-20.928c-3.949-4.848-6.133-10.674-8.121-16.495
		c-8.76-17.253-21.471-32.175-35.48-45.403c-8.723-7.554-21.33-7.055-31.719-3.814c-1.088,10.658-11.818,14.893-17.543,22.66
		c-10.51,14.103-17.584,32.524-12.521,50.111c-0.311,0.969-0.964,2.905-1.298,3.904c-2.367-1.537-4.732-3.045-7.113-4.568
		c0.768,7.674,4.392,14.442,11.985,17.164c0.176-2.156,0.47-6.461,0.644-8.621c5.792,11.133,16.879,16.499,26.674,23.292
		c-10.465-3.069-20.026-8.546-30.592-11.287c-8.822-2.196-18.481,5.727-26.43,0.052c-9.305,7.093-19.784,14.286-24.098,25.698
		c-7.434,19.533-17.518,39.039-16.669,60.53c1.374,18.46-5.565,36.169-12.166,53.044c-5.081,9.514-7.923,20.593-15.626,28.475
		c-0.514-16.67,8.028-31.411,11.677-47.221c1.634,2.132,3.29,4.282,4.948,6.415c2.715-14.278,3.449-28.831,6.649-43.009
		c0.255-12.033,3.55-23.458,7.474-34.732c0,0-0.006,0-0.006-0.005c2.063-8.097,3.16-16.451,5.802-24.396
		c3.155-6.629,9.001-11.812,10.888-19.085c2.721-10.18,6.395-20.1,11.746-29.209c2.507,1.467,5.038,2.934,7.549,4.428
		c1.158-1.258,2.347-2.506,3.529-3.764c-6.439-6.939-12.396-14.248-17.826-22.012c1.566,7.289,3.414,14.558,3.693,22.036
		c-2.605-3.056-5.111-6.181-7.553-9.376c0.209,2.582,0.684,7.738,0.923,10.319c-8.353-5.138-14.672-12.685-21.562-19.524
		c-0.069-3.529-0.14-7.079-0.238-10.604c-0.046-1.143-0.16-3.414-0.211-4.543c-3.08-5.471-4.617-13.398-11.672-14.981
		c-13.658-4.034-26.703-9.661-39.598-15.605c7.004-9.511,16.524-16.829,22.909-26.813c2.63-4.074,7.029-6.32,11.058-8.737
		c6.744,0.69,11.977-4.118,18.176-5.75c8.572-2.417,17.563-2.013,26.346-1.942c13.493-0.215,26.108,5.706,39.598,5.512
		c-1.394,3.125-2.48,6.459-4.448,9.29c-3.19-0.125-6.38-0.358-9.585-0.743c1.049,16.738-4.992,33.947-16.404,46.228
		c0.733,3.72,4.593,8.022,2.535,11.651c-2.79,1.867-5.616,3.715-8.426,5.557c0.854,0.904,1.732,1.753,2.625,2.557
		c0.874-0.66,2.627-2.008,3.505-2.695c0.659-0.28,1.937-0.85,2.606-1.159c0.354,0.095,0.688,0.21,1.003,0.35
		c-0.314-0.14-0.644-0.255-0.999-0.35c-0.668,0.31-1.936,0.879-2.61,1.159c-0.514,2.49-0.989,4.951-1.388,7.457
		c1.912,2.506,3.804,5.063,5.671,7.618c-0.005,0-0.005,0-0.005,0c-1.867-2.556-3.754-5.112-5.672-7.618
		c-2.065,8.492,5.133,15.616,11.932,19.289c6.012,2.229,10.864-2.859,14.224-7.123c-6.364,2.342-14.033,6.126-18.486-1.492
		c5.103-1.277,10.274-2.506,15.401-3.74c0.029-9.658-0.115-19.883,4.907-28.544c4.184-9.306,13.888-15.746,15.132-26.374
		c1.153-10.604,6.385-19.924,10.877-29.375c6.414,0.779,12.855,1.633,19.344,1.902c-3.135-3.938-8.146-4.877-12.734-6.021
		c4.639-4.099,9.25-8.157,13.885-12.266c12.379,7.503,23.766,16.644,33.322,27.558c-0.725,0.992-2.188,2.959-2.926,3.958
		c7.502,5.966,10.896,14.887,13.094,23.902c0.83-0.942,2.482-2.88,3.314-3.858c6.297,9.685,15.104,18.252,16.547,30.322
		c-7.27-6.25-8.139-17.588-17.045-22.065c3.24,18.531,20.764,29.778,25.76,47.655c0.48,2.223,1.443,6.65,1.902,8.871
		c1.338-1.847,2.68-3.688,4.029-5.536c0.902,1.163,2.684,3.535,3.576,4.714l-3.717-1.114c-0.729,1.683-1.438,3.335-2.162,5.022
		c4.135,10.214,5.906,21.247,10.74,31.216c6.543,14.299,7.041,30.201,11.379,45.146c3.736,20.067-0.641,40.656,2.693,60.81
		c1.143,7.736,0.949,15.595,0.594,23.407c-2.93,3.416-5.656,7.006-6.994,11.353c-7.609,19.516-14.758,39.254-19.965,59.544h2.795
		c8.328-15.272,13.494-31.938,20.455-47.828c7.008-12.889,13.324-27.117,12.586-42.104
		C336.609,280.268,331.805,274.823,331.285,268.223z M22.81,303.973c-7.578-2.271-4.264-11.317-5.287-17.168
		C19.371,292.512,21.123,298.211,22.81,303.973z M13.1,255.33c-3.075,1.966-6.839-3.216-3.929-5.517
		C12.322,247.869,15.8,253.008,13.1,255.33z M260.25,285.027c-5.371,1.073-11.168,1.613-15.555,5.263
		c-12.852,10.149-27.646,17.536-39.859,28.521c-2.75,2.959-4.592-0.999-6.084-2.917c4.096-5.271,3.717-12.236,4.667-18.482
		c1.443,0.444,4.277,1.37,5.703,1.843l0,0l0,0l0,0c0,0,0,0,0-0.011c0.473-2.763,0.973-5.53,1.441-8.297
		c2.43,2.197,4.898,4.403,7.357,6.605c0.756-4.067,1.52-8.117,2.268-12.176c-1.674,0.019-3.504-0.386-5.232-0.438
		c1.729,0.053,3.559,0.457,5.236,0.438l0.621-3.26c5.4,1.803,5.609,9.824,12.285,9.615c2.955-6.611,6.6-12.857,10.842-18.7
		c0.635,4.117,1.684,8.191,3.547,11.948c0.453-5.863,0.295-11.76,0.09-17.636c1.445-0.564,4.322-1.692,5.734-2.267
		c0.074,1.089,0.234,3.266,0.334,4.359C263.25,268.029,259.295,279.181,260.25,285.027z M243.816,189.258
		c3.225-0.304,6.391-0.185,9.59,0.404C253.236,196.312,243.631,195.778,243.816,189.258z M271.061,268.56
		c2.369-1.021,4.785-1.927,7.195-2.82c0.785-0.875,2.371-2.646,3.17-3.521l1.678,0.8c0,0,0.004,0.005,0.004,0.009
		c2.318,1.726,4.475,3.665,6.658,5.576c1.701-5.183,6.395-2.366,5.629,1.537c0.709,4.954-1.563,10.583-6.363,12.577
		c-7.998,3.383-16.875,3.034-25.387,2.904c0.264-3.432,0.555-6.854,0.883-10.295C266.781,273.13,268.842,270.762,271.061,268.56z
		 M272.795,181.5c-1.662,1.627-3.275,3.31-4.787,5.062l0,0c-2.018,0.025-5.986,0.095-7.977,0.12
		c-0.398-1.159-1.213-3.479-1.609-4.638c-5.156,0-10.293,0-15.41,0c-1.037,0.898-3.094,2.715-4.139,3.639l-2.461-0.204
		c-6.535-2.632-13-5.427-19.08-8.952c15.484,2.178,31.033,3.715,46.703,2.223l-0.799,3.455
		C265.621,182.044,270.398,181.664,272.795,181.5z M251.465,87.98c3.529,6.645,7.717,12.99,14.066,17.293
		c-3.623,10.703-19.203,10.889-24.906,2.132C238.16,98.979,242.777,90.087,251.465,87.98z M192.83,142.705
		c-7.873-11.747-1.225-26.658,4.498-37.877c7.413-8.761,16.184-16.688,25.901-22.889c6.908-3.369,15.451-3.195,22.504-0.24
		c1.404,4.075-3.406,5.207-5.607,7.529c-8.07,6.535-10.033,20.857-1.516,27.836c7.414,3.604,16.055,3.056,24.021,2.371
		c2.307-2.156,2.756-6.68,6.016-7.487c8.457,6.729,9.441,17.808,13.924,26.918c4.096,18.037-13.211,37.356-31.676,34.82
		c-10.34-1.631-21.518,0.924-31.176-4.098C207.678,164.337,199.935,153.229,192.83,142.705z M208.195,180.83
		c-0.967,3.011-1.936,5.991-3.029,8.972c-4.189-1.258-6.506-4.918-8.457-8.537c-2.907,1.039-5.796,2.107-8.677,3.17
		c-0.154-2.581-0.43-7.693-0.564-10.273C194.848,174.63,201.776,177.236,208.195,180.83z M188.912,256.437
		c6.475,2.655,13.02,4.984,20.209,3.409c3.404-10.032,11.551-18.061,22.533-18.695c6.58,5.802,13.92,11.225,17.52,19.504
		c-2.922,1.234-5.801,2.458-8.693,3.692c-2.301,6.224-5.041,12.234-8.191,18.068c-6.131-5.71-15.455-7.657-22.906-3.272
		c-9.569,5.561-11.889,17.441-14.686,27.248c-1.821-2.271-3.568-4.623-5.275-6.936c-8.848,0.159-18.892,0.19-25.586,6.885
		c-6.056,5.989-14.873,10.935-14.129,20.662c-2.6-2.6-5.166-5.25-7.627-7.998c5.705-5.796,13.168-9.476,18.746-15.391
		c6.439-9.465,11.551-19.909,15.105-30.815C178.273,266.237,182.277,259.298,188.912,256.437z M157.32,221.951
		c-0.539-4.334,1.783-9.662-2.002-12.995c-2.201,1.487-3.674,4.169-6.443,4.664c-4.799-4.17-10.201-9.88-8.447-16.834
		c0.833-6.885,8.143-9.87,13.354-13.045c3.949,3.43,5.931,8.197,7.424,13.09c2.561,2.98,5.355,5.829,5.376,10.082
		c-1.822,1.258-3.669,2.512-5.491,3.791C161.533,215.155,163.335,220.46,157.32,221.951z M181.232,173.757
		c2.986,8.896,2.633,18.341,2.272,27.598c-1.282,0-3.833-0.051-5.116-0.051c0.099-1.323,0.295-3.974,0.404-5.277l3.08-0.064
		c-0.279-1.188-0.869-3.555-1.189-4.738c-2.07,1.139-4.158,2.302-6.215,3.436c-0.928-0.381-2.726-1.158-3.629-1.563l0.854,4.449
		c-8.358-1.987-9.138-11.478-14.618-16.784C163.855,174.841,172.267,172.12,181.232,173.757z M156.123,169.993
		c1.318,0.643,3.969,1.871,5.322,2.49c-9.376,4.214-17.189,10.814-24.573,17.816C139.744,180.881,148.184,174.96,156.123,169.993z
		 M130.173,212.812c4.287,3.433,10.229,5.306,13.068,10.232c-0.923,4.803-6.914,6.34-10.254,9.326
		c-0.045-3.261-0.109-6.54-0.184-9.801c-1.248-0.08-3.74-0.17-4.973-0.234C128.615,219.155,129.423,215.986,130.173,212.812z
		 M127.622,333.603c2.891-3.075,7.124-4.979,9.351,0.193l2.441-4.166c3.895,3.334,7.693,6.922,12.141,9.561
		c3.105-2.577,4.424-6.605,6.335-10.037c1.688-2.365,3.341-4.732,5.067-7.055c0.789-2.674,1.402-5.37,1.873-8.12
		c2.061-2.077,3.504-5.469,6.889-5.297c0.993,3.006,1.801,6.059,2.411,9.186c1.966-2.896,3.89-5.752,5.806-8.667
		c1.658,0.048,4.918,0.158,6.579,0.22c4.109,4.702,8.638,9.036,12.308,14.123c-14.867,9.541-31.717,14.936-47.812,21.841
		c-11.481-4.818-24.082-4.493-36.034-7.185C118.032,334.122,122.56,332.07,127.622,333.603z M104.777,276.936
		c-1.418-4.877-1.633-10.845,0.186-15.6C108.402,263.874,107.474,273.949,104.777,276.936z M49.718,166.658
		c-0.135-4.788,2.701-8.768,4.808-12.811c4.493-0.284,8.95,0.24,12.97,2.416c0.738,6.705-4.234,13.065-11.058,13.47
		C53.816,169.612,49.583,170.776,49.718,166.658z M98.747,218.567c4.259-7.934,11.228-14.347,18.696-19.24
		C114.583,208.316,108.042,215.986,98.747,218.567z M123.258,147.458c1.448-2.397,2.901-4.753,4.309-7.149
		c0.759,1.322,2.251,3.934,3.011,5.227c-2.481,0.93-4.833,2.188-6.98,3.695c9.391,3.764,4.758,13.158,1.768,19.743
		c-6.998,14.014-14.691,28.979-28.754,37.117c-8.452,5.917-20.809,9.32-29.686,2.392c-9.703-6.885-11.002-19.694-12-30.582
		c7.838-4.118,18.814-6.914,21.785-16.245c1.414-11.192-10.683-14.273-18.969-16.469c-0.97-4.309,4.951-7.479,7.722-10.37
		c9.47-6.199,20.663-15.195,32.495-9.59C107.882,130.384,122.384,134.014,123.258,147.458z M172.976,79.693
		c-2.271-2.322-0.289-6.865,2.807-7.174C180.499,73.343,176.945,81.984,172.976,79.693z M173.162,69.229
		c0.998-5.183,1.038-11.457,5.754-14.867C178.702,59.774,178.368,66.104,173.162,69.229z M191.273,17.535
		c-1.07,3.405-7.219,1.957-9.989,1.229C182.486,15.797,188.572,16.272,191.273,17.535z M191.198,50.408
		c-1.658,2.796-5.206,3.195-7.997,4.244c2.386-5.072,1.756-13.594,7.502-15.771C191.527,42.666,191.562,46.575,191.198,50.408z
		 M201.542,36.87c-4.16-0.639-8.354-2.321-12.588-1.228c-1.781-1-3.559-2.018-5.33-3.035l0.708,3.419
		c-7.543,0-15.12-0.56-22.294-3.061c-9.855-3.149-20.238-1.327-30.328-2.327c9.9-5.79,21.561-5.859,32.455-8.491
		c8.262-1.892,16.783-2.275,25.234-1.732c-0.334,4.458-2.246,8.407-4.502,12.151c1.447-0.234,4.363-0.715,5.805-0.953
		c2.173,1.309,4.357,2.58,6.56,3.838c-4.123-5.635-1.542-13.098-2.395-19.554c7.648-0.02,15.24,0.899,22.609,2.931
		C211.604,24.369,204.928,29.271,201.542,36.87z"/>
	<path fill="#FFFFFF" d="M312.648,38.219c1.873-0.24,5.637-0.715,7.508-0.944c-1.893-3.739-6.508-4.263-9.822-6.206
		c3.549-2.131,7.598-2.721,11.625-3.27c-1.971-5.935-10.061-2.172-14.678-2.052c0.094,7.243-0.402,14.537,0.398,21.751
		C313.691,49.58,311.371,41.603,312.648,38.219z"/>
	<path fill="#FFFFFF" d="M331.492,48.201c0.141-3.089,0.291-6.219,0.436-9.319c3.244-0.903,6.619-1.633,9.441-3.595
		c-4.1-1.398-10.773-0.295-10.465-6.484c4-0.3,8.002-0.549,12.004-0.949c-2.656-5.685-10.629-2.081-15.506-3.005
		c0.094,7.333-0.311,14.673,0.041,21.985C328.443,47.189,330.482,47.883,331.492,48.201z"/>
	<path fill="#FFFFFF" d="M352.063,38.293c2.775-0.689,6.539,0.09,8.096-2.961c-3.314-1.253-6.648-2.557-9.934-3.889
		c3.52-2.525,7.703-3.354,11.92-3.93c-2.393-5.556-10.322-1.677-15.051-2.221c-0.174,7.763-0.277,15.531,0.354,23.27
		C353.086,47.947,351.258,42.102,352.063,38.293z"/>
	<path fill="#FFFFFF" d="M369.764,49.036c0.859-3.569,1.688-7.175,2.496-10.749c2.811-0.52,5.627-1.063,8.447-1.662
		c-2.486-3.804-9.072-0.823-10.418-5.512c3.004-3.809,8.357-2.541,12.574-3.429c-3.365-5.092-10.584-1.992-15.656-2.812
		C367.783,32.751,363.424,42.906,369.764,49.036z"/>
	<path fill="#FFFFFF" d="M391.674,38.363c1.697-1.473,8.758,0.798,7.232-3.195c-2.996-1.328-6.053-2.587-9.102-3.789
		c2.646-3.904,11.16-0.925,11.5-6.182c-4.764-0.728-9.559-0.309-14.352-0.02c-0.186,7.523-0.229,15.077-0.084,22.6
		C392.877,48.637,390.955,42.172,391.674,38.363z"/>
	<path fill="#FFFFFF" d="M313.004,77.112c2.02-0.404,6.045-1.238,8.051-1.633c-1.992-4.218-10.225-0.897-9.256-6.749
		c3.271-2.441,7.58-2.271,11.344-3.345c-4.26-3.095-9.895-1.373-14.799-1.907c-1.465,7.928-2.344,16.43,0.43,24.167
		C313.297,86.432,311.736,80.541,313.004,77.112z"/>
	<path fill="#FFFFFF" d="M343.025,63.953c-5.096-0.291-10.158-0.335-15.24-0.385c-0.598,7.862-0.551,15.766-0.365,23.673
		c1.016-0.259,3.057-0.81,4.068-1.093c0.316-3.359,0.619-6.699,1.006-10.055c2.176-0.244,6.523-0.714,8.703-0.949
		c-4.172-2.715-11.621-1.277-9.254-8.631C335.572,65.79,340.631,67.762,343.025,63.953z"/>
	<path fill="#FFFFFF" d="M391.975,77.063c2.93-0.524,6.885-0.215,7.973-3.789c-2.051-0.215-6.17-0.614-8.236-0.809
		c-4-8.588,9.42-2.786,10.393-8.941c-5.113-0.02-10.18,0.045-15.262,0.095c-0.117,8.167-0.547,16.409,0.939,24.478
		C391.689,85.654,391.121,80.896,391.975,77.063z"/>
	<path fill="#FFFFFF" d="M350.875,87.691c0.438-3.555,0.818-7.104,1.217-10.649c2.059-0.379,6.182-1.133,8.229-1.517
		c-1.459-3.41-5.553-2.387-8.373-3.41c-3.529-6.465,7.168-4.568,10.154-5.656c-2.322-5.701-10.199-1.917-14.936-2.936
		C348.531,71.191,343.33,82.768,350.875,87.691z"/>
	<path fill="#FFFFFF" d="M382.385,63.662c-5.252-0.139-10.535-0.124-15.785,0c0,7.459-0.57,14.987,0.59,22.396
		c5.201,4.184,3.781-6.46,4.881-9.306c1.863-0.12,5.576-0.38,7.428-0.494l-0.076-3.181c-1.865-0.109-5.6-0.305-7.475-0.398
		c-0.121-1.324-0.357-3.975-0.467-5.277C375.098,66.34,381.32,68.92,382.385,63.662z"/>
	<path fill="#FFFFFF" d="M134.341,97.086c-0.38,6.091-0.709,12.166-1.068,18.232c-5.511-1.943-10.979-4.049-16.279-6.556
		c0.045,1.134,0.159,3.399,0.209,4.538c3.505,2.676,6.799,5.706,10.773,7.668c4.758,1.588,9.59-0.918,14.208-1.917
		c-1.453-3.12-2.926-6.245-4.413-9.365c1.996,0.185,5.996,0.563,7.977,0.733C142.205,105.772,138.58,101.154,134.341,97.086z"/>
	<path fill="#FFFFFF" d="M331.488,101.748c-4.844,0.031-9.701,0.096-14.547,0.17c0.096,7.789-1.367,15.931,0.879,23.483
		c5.387,1.388,3.336-6.011,4.701-9.095c2.875-0.829,6.063-1.373,8.049-3.93c-3.598-1.183-8.092-1.253-10.008-5.187
		c3.547-0.97,7.193-1.633,10.867-2.151L331.488,101.748z"/>
	<path fill="#FFFFFF" d="M340.225,106.152c4.213-0.734,9.326,0.404,12.566-3.146c-4.979-0.568-11.262-2.814-15.656,0.046
		c-0.814,7.339-0.285,14.747-0.125,22.135c1.018-0.214,3.031-0.618,4.051-0.809c0.107-2.955,0.238-5.89,0.373-8.831
		c2.252-0.259,6.729-0.753,8.977-1.014C347.564,110.814,340.725,111.693,340.225,106.152z"/>
	<path fill="#FFFFFF" d="M361.354,115.852c2.83-0.509,5.656-1.058,8.467-1.627c-2.455-3.101-6.605-3.619-9.961-5.207
		c2.576-3.625,7.15-3.365,11.055-3.979l-0.146-3.15c-4.668,0-9.324,0.029-13.988,0.055c-0.361,7.523-0.385,15.076-0.311,22.625
		c1.039,0.115,3.127,0.375,4.16,0.514C360.873,122.018,361.107,118.932,361.354,115.852z"/>
	<path fill="#FFFFFF" d="M376.494,102.243c-0.43,7.129-1.039,14.298-0.135,21.427c0.844,0.549,2.549,1.657,3.4,2.227
		c0.662-3.529,1.277-7.035,1.92-10.554c2.027-0.215,6.133-0.689,8.193-0.904c-3.031-2.89-7.674-3.454-9.998-7.173
		c3.693-1.068,7.461-1.938,11.201-2.842C387.621,99.736,381.32,102.482,376.494,102.243z"/>
	<path fill="#FFFFFF" d="M360.115,140.708c-5.049-0.09-10.092,0-15.123,0.29c0.025,7.973-0.148,15.98,0.949,23.906
		c4.842-1.611,3.449-7.078,4.303-10.937c1.893-0.19,5.678-0.569,7.6-0.759c-1.09-3.455-5.258-3.215-7.957-4.607
		C347.619,141.213,359.477,147.147,360.115,140.708z"/>
	<path fill="#FFFFFF" d="M368.922,164.291c0.402-3.554,0.717-7.128,1.082-10.678c2.205-0.141,6.605-0.479,8.787-0.615
		c-1.873-4.143-8.662-1.213-9.615-5.97c1.467-5.302,8.92-1.463,11.98-5.536c-5.297-0.874-10.652-0.874-15.996-0.59
		c0.018,7.313-0.383,14.678,0.262,21.972C366.301,163.223,368.043,163.938,368.922,164.291z"/>
	<path fill="#FFFFFF" d="M388.141,165.255c0.635-3.81,1.137-7.658,1.688-11.497c2.033-0.145,6.1-0.379,8.162-0.529
		c-1.945-4.043-7.174-3.83-10.729-5.646c3.461-4.078,10.34-1.902,13.107-6.614c-5.197-0.3-10.406-0.23-15.594-0.065
		C386.131,148.711,381.266,159.584,388.141,165.255z"/>
	<path fill="#FFFFFF" d="M222.777,158.535c-0.238,2.062-0.719,6.137-0.945,8.167c2.049-0.259,6.203-0.753,8.26-1.013
		C229.289,161.92,225.879,160.167,222.777,158.535z"/>
	<path fill="#FFFFFF" d="M359.375,201.498c5.023-2.747,3.061-9.415,3.648-14.077c-0.398-2.771,1.07-11.059-3.922-7.739
		c-0.904,5.937-0.693,11.997-0.805,18.008c-2.59,0.52-5.166,1.02-7.746,1.511c-1.117-6.533-0.734-13.208-1.59-19.738
		c-0.611-0.209-1.867-0.638-2.506-0.853c-1.98,5.915-2.041,12.38-0.803,18.437C346.414,203.015,355.049,204.199,359.375,201.498z"/>
	<path fill="#FFFFFF" d="M373.654,196.904c-0.715-6.011-0.59-12.064-1.037-18.11c-1.002,0.289-2.969,0.828-3.938,1.119
		c0,5.654-0.422,11.385,0.449,17.011c1.463,7.156,12.996,8.078,16.332,1.968c2.143-6.809,1.049-14.082-0.377-20.902
		c-5.82,3.275-1.633,11.389-3.223,16.765C382.975,199.327,374.813,200.836,373.654,196.904z"/>
	<path fill="#FFFFFF" d="M76.826,208.552c2.955-2.271,4.543-5.729,6.08-9.044C77.365,198.729,75.927,204.249,76.826,208.552z"/>
	<path fill="#FFFFFF" d="M356.287,238.445c3.871,5.281,14.197,3.789,15.637-2.932c0.715-5.686,0.355-11.427,0.516-17.133
		c-1.082,0.154-3.264,0.494-4.354,0.658c-0.453,5.987-0.309,11.973-0.469,17.989c-2.051-0.047-6.174-0.116-8.242-0.146
		c-0.373-6.338-0.42-12.659-0.395-19.006c-3.035,0.33-5.49,1.425-4.502,4.948C354.502,228.027,353.838,233.624,356.287,238.445z"/>
	<path fill="#FFFFFF" d="M391.711,240.748c7.322-5.538,3.525-15.912,3.648-23.626c-7.688,2.981-2.342,13.471-4.328,19.815
		c-2.059,0-6.137-0.025-8.193-0.056c-0.434-6.744,0.998-13.888-1.775-20.302c-5.375,4.398-2.631,12.215-2.518,18.195
		C378.861,241.196,386.795,242.683,391.711,240.748z"/>
	<path fill="#FFFFFF" d="M362.313,275.228c1.156-6.033,0.449-12.26,0.547-18.372c-0.99-0.021-2.99-0.039-3.977-0.063
		c-0.211,6.357-0.482,12.729-0.955,19.078c-1.982,0.045-5.98,0.092-7.971,0.145c-0.473-6.604-0.566-13.213-0.473-19.795
		c-0.873,0.166-2.574,0.525-3.428,0.716c-1.334,6.465-2.057,13.604,0.629,19.799C350.436,281.333,359.732,280.904,362.313,275.228z"
		/>
	<path fill="#FFFFFF" d="M385.635,275.066c1.674-5.915,1.271-12.28-0.199-18.185c-0.828-0.15-2.502-0.445-3.354-0.589
		c0.168,6.679,0.018,13.351-0.584,19.982c-1.791-0.214-5.354-0.644-7.156-0.859c-1.871-6.155-1.164-12.71-1.637-19.044
		c-5.326-0.549-3.783,5.796-4.189,9.119c0.43,4.086-0.898,9.263,2.797,12.203C375.285,281.242,383.826,280.676,385.635,275.066z"/>
	<path fill="#FFFFFF" d="M183.345,278.357c0.634-3.759,3.169-8.191-0.295-11.295c-3.334,8.144-6.011,16.68-5.816,25.614
		C181.203,288.946,181.777,283.289,183.345,278.357z"/>
	<path fill="#FFFFFF" d="M315.404,276.132c-2.041,1.683-2.422,7.572,0.941,7.554C318.311,281.983,318.707,276.183,315.404,276.132z"
		/>
	<path fill="#FFFFFF" d="M280.604,298.806c1.791,2.303,4.004,2.558,6.605,0.785c0.168-1.164,0.514-3.455,0.709-4.592
		C285.291,292.824,280.225,295.351,280.604,298.806z"/>
	<path fill="#FFFFFF" d="M311.799,293.699c-4.043,10.172-11.547,18.434-15.619,28.567c3.953-3.877,6.244-8.966,9.135-13.611
		C308.09,303.973,312.135,299.514,311.799,293.699z"/>
	<path fill="#FFFFFF" d="M355.762,294.688c-1.377,6.939-2.77,14.732,0.633,21.302c4.213,4.643,13.805,3.421,15.529-2.956
		c0.693-5.631,0.313-11.332,0.252-16.992c-1.01-0.233-3.051-0.663-4.09-0.904c-0.264,6.227-0.402,12.431-0.354,18.655
		c-2.555,0.4-5.131,0.778-7.688,1.153c-1.238-6.168-1.264-12.465-0.969-18.721C358.252,295.842,356.58,295.072,355.762,294.688z"/>
	<path fill="#FFFFFF" d="M396.168,303.727c-0.529-2.764,0.443-10.058-4.377-8.156c-0.557,5.836-0.102,11.756-0.74,17.6
		c-1.941,2.68-9.475,2.519-8.213-2.361c-0.359-5.468-0.434-10.985-0.977-16.43c-2.102,1.518-4.852,3.418-3.832,6.584
		c0.053,6.251-1.396,17.468,7.74,17.519C394.602,320.753,397.467,310.477,396.168,303.727z"/>
	<path fill="#FFFFFF" d="M227.006,331.191c7.508-6.372,15.605-12.262,21.188-20.521c-3.83,1.416-7.568,3.383-11.758,3.338
		c1.375,0.689,4.119,2.056,5.498,2.739c-6.539,5.237-13.006,10.729-20.742,14.112c1.701,3.74-1.514,6.508-3.32,9.441
		c5.83-2.64,11.814-6.249,18.471-5.397c4.623,0.499,8.643,5.049,13.445,3.052C247.105,328.666,233.971,332.403,227.006,331.191z"/>
	<path fill="#FFFFFF" d="M79.257,324.94c1.612,5.825,3.693,11.477,5.236,17.334c2.582,1.338,5.201,2.669,7.928,3.809
		c-1.732-3.697-4.877-6.37-7.174-9.666C83.331,332.56,82.263,328.186,79.257,324.94z"/>
	<path fill="#FFFFFF" d="M358.9,333.514c-0.139,6.644-0.385,13.327-1.441,19.928c-2.672-0.55-5.346-1.12-7.998-1.677
		c-1.205-6.086,3.549-15.912-3.645-19.036c-0.637,7.119-2.15,14.843,0.967,21.637c3.82,4.447,11.998,3.929,15.223-1.021
		c1.662-6.479,0.686-13.253,0.686-19.862L358.9,333.514z"/>
	<path fill="#FFFFFF" d="M380.727,352.652c-1.742,0.099-5.246,0.345-6.998,0.434c-0.594-6.351-0.285-12.835-1.566-19.081
		l-3.217-1.206c-0.125,8.447-3.533,25.571,9.865,24.687c11.438-1.982,7.344-17.016,6.891-25.042
		C378.502,336.731,384.473,346.532,380.727,352.652z"/>
</g>
</svg>
